<svg width="15" height="14" viewBox="0 0 15 14" fill="none" xmlns="http://www.w3.org/2000/svg">
<path fill-rule="evenodd" clip-rule="evenodd" d="M4 4.375H4.76666C5.45115 4.375 6.06385 3.9504 6.30419 3.30949L6.87219 1.79482C6.96689 1.5423 7.2083 1.375 7.478 1.375C7.83533 1.375 8.125 1.66467 8.125 2.022V3.0431C8.125 3.77869 8.72131 4.375 9.4569 4.375H12.5111C12.8301 4.375 13.0693 4.66686 13.0068 4.97968L11.8836 10.5956C11.7784 11.1215 11.3167 11.5 10.7804 11.5H4V4.375ZM3.96249 3.25H4H4.76666C4.9822 3.25 5.17514 3.1163 5.25082 2.91447L5.81882 1.39981C6.07818 0.708191 6.73935 0.25 7.478 0.25C8.45665 0.25 9.25 1.04335 9.25 2.022V3.0431C9.25 3.15737 9.34263 3.25 9.4569 3.25H12.5111C13.54 3.25 14.3117 4.19135 14.1099 5.20031L12.9867 10.8163C12.7764 11.868 11.853 12.625 10.7804 12.625H4H3.84398C3.55465 13.2872 2.89387 13.75 2.125 13.75C1.08947 13.75 0.25 12.9105 0.25 11.875V3.625C0.25 2.58947 1.08947 1.75 2.125 1.75C3.03211 1.75 3.78877 2.39416 3.96249 3.25ZM2.875 3.625C2.875 3.21079 2.53921 2.875 2.125 2.875C1.71079 2.875 1.375 3.21079 1.375 3.625V11.875C1.375 12.2892 1.71079 12.625 2.125 12.625C2.53921 12.625 2.875 12.2892 2.875 11.875V11.5V4.375V3.625Z" fill="black" fill-opacity="0.4"/>
</svg>
