<svg width="30" height="29" viewBox="0 0 30 29" fill="none" xmlns="http://www.w3.org/2000/svg">
<path d="M19.3992 7.73529C21.2092 7.73529 22.6765 9.26449 22.6765 11.1509V15.9896C22.6765 18.8943 20.6884 21.3151 18.0529 21.8546L15.8278 21.8542C13.1932 21.314 11.2059 18.8937 11.2059 15.9896V11.1509C11.2059 9.26449 12.6732 7.73529 14.4832 7.73529H19.3992Z" fill="#FA6650" fill-opacity="0.14"/>
<path fill-rule="evenodd" clip-rule="evenodd" d="M26.0851 5.97058C27.0597 5.97058 27.8498 6.76067 27.8498 7.73529V10.3155C27.8498 12.7152 25.9045 14.6605 23.5048 14.6605H22.6221V5.97058H26.0851ZM6.72772 5.97058V14.6605H5.84494C3.4453 14.6605 1.5 12.7152 1.5 10.3155V7.73529C1.5 6.76067 2.29009 5.97058 3.26471 5.97058H6.72772Z" stroke="url(#paint0_linear_2763_2771)" stroke-width="3"/>
<path fill-rule="evenodd" clip-rule="evenodd" d="M18.6444 2C19.7409 2 20.7335 2.44442 21.4521 3.16296C22.1706 3.88149 22.615 4.87414 22.615 5.97059V13.4706C22.615 15.6635 21.7262 17.6488 20.2891 19.0858C18.852 20.5229 16.8667 21.4118 14.6738 21.4118C12.4809 21.4118 10.4957 20.5229 9.05858 19.0858C7.62151 17.6488 6.73267 15.6635 6.73267 13.4706V5.97059C6.73267 4.87414 7.17709 3.88149 7.89562 3.16296C8.61416 2.44442 9.60681 2 10.7033 2H18.6444Z" stroke="#080808" stroke-width="3"/>
<path d="M14.6736 23.0229V25.8235" stroke="#080808" stroke-width="3" stroke-linecap="square"/>
<path d="M7.61475 26.7059H21.7324" stroke="#080808" stroke-width="3" stroke-linecap="round"/>
<defs>
<linearGradient id="paint0_linear_2763_2771" x1="27.8498" y1="10.3155" x2="1.65309" y2="10.3155" gradientUnits="userSpaceOnUse">
<stop stop-color="#FF9B94"/>
<stop offset="1" stop-color="#FA6650"/>
</linearGradient>
</defs>
</svg>
