<svg width="22" height="21" viewBox="0 0 22 21" fill="none" xmlns="http://www.w3.org/2000/svg">
<path d="M10.2508 1.92481C10.4319 1.54525 10.9722 1.54525 11.1533 1.92481L13.6873 7.23529C13.7602 7.38804 13.9054 7.49355 14.0732 7.51567L19.9069 8.28465C20.3238 8.33961 20.4908 8.85345 20.1858 9.14299L15.9183 13.194C15.7955 13.3106 15.74 13.4813 15.7709 13.6477L16.8422 19.4334C16.9188 19.847 16.4817 20.1645 16.112 19.9639L10.9406 17.1571C10.7918 17.0764 10.6123 17.0764 10.4635 17.1571L5.29204 19.9639C4.92241 20.1645 4.48532 19.847 4.56189 19.4334L5.63324 13.6477C5.66405 13.4813 5.60858 13.3106 5.48583 13.194L1.21833 9.14299C0.91331 8.85345 1.08027 8.33961 1.49722 8.28465L7.33084 7.51567C7.49864 7.49355 7.64386 7.38804 7.71676 7.23529L10.2508 1.92481Z" stroke="black" stroke-opacity="0.7" stroke-width="1.5" stroke-linecap="round" stroke-linejoin="round"/>
</svg>
