<svg width="27" height="30" viewBox="0 0 27 30" fill="none" xmlns="http://www.w3.org/2000/svg">
<path d="M11.1945 28.4706C12.6565 28.4706 13.8416 27.2855 13.8416 25.8236C13.8416 24.3616 12.6565 23.1765 11.1945 23.1765C9.73261 23.1765 8.54749 24.3616 8.54749 25.8236C8.54749 27.2855 9.73261 28.4706 11.1945 28.4706Z" stroke="url(#paint0_linear_2763_2788)" stroke-width="3"/>
<path d="M22.665 28.4706C24.1269 28.4706 25.3121 27.2855 25.3121 25.8236C25.3121 24.3616 24.1269 23.1765 22.665 23.1765C21.2031 23.1765 20.0179 24.3616 20.0179 25.8236C20.0179 27.2855 21.2031 28.4706 22.665 28.4706Z" stroke="url(#paint1_linear_2763_2788)" stroke-width="3"/>
<path d="M14.5536 15.0541L14.6229 15.2348L19.5537 15.2351C20.2624 15.2351 20.9256 14.8965 21.3451 14.3288L21.4374 14.1938L25.3623 7.98648C25.408 7.91422 25.4323 7.83031 25.4323 7.74463C25.4323 7.52366 25.2743 7.33988 25.0659 7.30177L24.9856 7.29452L11.26 7.29395L14.5536 15.0541Z" fill="#FA6650" fill-opacity="0.14"/>
<path d="M5.87964 3.85794H23.4465C24.4211 3.85794 25.2112 4.64803 25.2112 5.62265C25.2112 5.95858 25.1153 6.28753 24.9348 6.57085L21.0586 12.655C20.4106 13.6721 19.288 14.288 18.082 14.288H10.3124" stroke="#080808" stroke-width="3" stroke-linecap="round" stroke-linejoin="round"/>
<path d="M1.5 2H3.31167C4.3714 2 5.329 2.63203 5.74561 3.60644L9.89314 13.3073C10.151 13.9103 10.0531 14.6065 9.6391 15.1151L8.52251 16.4868C8.05256 17.0641 8.13959 17.9131 8.71691 18.383C8.95732 18.5787 9.25784 18.6856 9.56784 18.6856H25.4663" stroke="#080808" stroke-width="3" stroke-linecap="round" stroke-linejoin="round"/>
<defs>
<linearGradient id="paint0_linear_2763_2788" x1="13.8416" y1="25.8236" x2="8.57824" y2="25.8236" gradientUnits="userSpaceOnUse">
<stop stop-color="#FF9B94"/>
<stop offset="1" stop-color="#FA6650"/>
</linearGradient>
<linearGradient id="paint1_linear_2763_2788" x1="25.3121" y1="25.8236" x2="20.0179" y2="25.8236" gradientUnits="userSpaceOnUse">
<stop stop-color="#FF9B94"/>
<stop offset="0.99419" stop-color="#FA6650"/>
</linearGradient>
</defs>
</svg>
