<svg width="16" height="16" viewBox="0 0 16 16" fill="none" xmlns="http://www.w3.org/2000/svg">
<path d="M7.8125 1.625C4.39524 1.625 1.625 4.39524 1.625 7.8125C1.625 11.2298 4.39524 14 7.8125 14C11.2298 14 14 11.2298 14 7.8125C14 7.50184 14.2518 7.25 14.5625 7.25C14.8732 7.25 15.125 7.50184 15.125 7.8125C15.125 11.8511 11.8511 15.125 7.8125 15.125C3.77392 15.125 0.5 11.8511 0.5 7.8125C0.5 3.77392 3.77392 0.5 7.8125 0.5C8.12316 0.5 8.375 0.75184 8.375 1.0625C8.375 1.37316 8.12316 1.625 7.8125 1.625Z" fill="black" fill-opacity="0.4"/>
<path d="M9.875 1.0625C9.875 0.75184 10.1268 0.5 10.4375 0.5H14.5625C14.8732 0.5 15.125 0.75184 15.125 1.0625V5.1875C15.125 5.49816 14.8732 5.75 14.5625 5.75C14.2518 5.75 14 5.49816 14 5.1875V2.42047L8.21025 8.21022C7.99058 8.42989 7.63442 8.42989 7.41475 8.21022C7.19508 7.99055 7.19508 7.63439 7.41475 7.41472L13.2045 1.625H10.4375C10.1268 1.625 9.875 1.37316 9.875 1.0625Z" fill="black" fill-opacity="0.4"/>
</svg>
