<svg width="22" height="22" viewBox="0 0 22 22" fill="none" xmlns="http://www.w3.org/2000/svg">
<path fill-rule="evenodd" clip-rule="evenodd" d="M11 1.75C5.89137 1.75 1.75 5.89137 1.75 11C1.75 16.1086 5.89137 20.25 11 20.25C16.1086 20.25 20.25 16.1086 20.25 11C20.25 5.89137 16.1086 1.75 11 1.75ZM0.25 11C0.25 5.06294 5.06294 0.25 11 0.25C16.9371 0.25 21.75 5.06294 21.75 11C21.75 16.9371 16.9371 21.75 11 21.75C5.06294 21.75 0.25 16.9371 0.25 11ZM7 8.5C7.55228 8.5 8 8.94771 8 9.5V10.5C8 11.0523 7.55228 11.5 7 11.5C6.44772 11.5 6 11.0523 6 10.5V9.5C6 8.94771 6.44772 8.5 7 8.5ZM15 8.5C15.5523 8.5 16 8.94771 16 9.5V10.5C16 11.0523 15.5523 11.5 15 11.5C14.4477 11.5 14 11.0523 14 10.5V9.5C14 8.94771 14.4477 8.5 15 8.5ZM8.01918 14.286C7.72026 13.9993 7.24549 14.0092 6.95875 14.3081C6.67202 14.607 6.68189 15.0818 6.98082 15.3685C7.99773 16.344 9.37083 16.7877 11 16.7877C12.6292 16.7877 14.0023 16.344 15.0192 15.3685C15.3181 15.0818 15.328 14.607 15.0412 14.3081C14.7545 14.0092 14.2797 13.9993 13.9808 14.286C13.3152 14.9245 12.355 15.2877 11 15.2877C9.64504 15.2877 8.6848 14.9245 8.01918 14.286Z" fill="black" fill-opacity="0.55"/>
</svg>
